<?xml version="1.0" encoding="UTF-8"?>
<svg id="_레이어_1" data-name="레이어 1" xmlns="http://www.w3.org/2000/svg" viewBox="0 0 1024 1024">
  <defs>
    <style>
      .cls-1 {
        fill: #ff2e2e;
      }
    </style>
  </defs>
  <path d="M686,694.4c0,18.12-3.6,36-10.8,53.6-7.2,17.6-19.6,33.46-37.2,47.6-17.6,14.12-41.6,25.46-72,34-30.4,8.53-68.8,12.8-115.2,12.8-33.08,0-60.68-2.27-82.8-6.8-22.14-4.54-40-10.94-53.6-19.2-13.6-8.27-23.33-18-29.2-29.2-5.86-11.2-8.8-23.48-8.8-36.8,0-25.07,8-44.4,24-58,16-13.6,37.6-23.86,64.8-30.8l.8-5.6c-14.94-4.26-26-11.46-33.2-21.6-7.2-10.12-10.8-22.4-10.8-36.8,0-22.4,8.52-40.4,25.6-54,17.06-13.6,38.4-23.06,64-28.4l.8-5.6c-39.47-20.8-59.2-55.72-59.2-104.8,0-20.8,3.86-40.66,11.6-59.6,7.72-18.92,19.46-35.86,35.2-50.8,15.73-14.93,35.46-26.8,59.2-35.6,23.73-8.8,51.6-13.2,83.6-13.2,19.7,0,34.62,2.41,39.2,3.2,10.91,1.87,20.08,4.28,27.03,6.39,5.84,2.12,12.87,5.11,20.48,9.37,8,4.48,13.95,8.84,17.3,11.44,4.83,3.76,17.02,13.08,26.37,27.37,11.75,17.97,17.63,39.77,17.63,65.43,0,20.8-4,40.67-12,59.6-8,18.94-19.88,35.88-35.6,50.8-15.74,14.94-35.47,26.8-59.2,35.6-23.74,8.8-51.6,13.2-83.6,13.2-10.67,0-20.4-.4-29.2-1.2s-17.47-2.53-26-5.2c-12.27,3.74-22.14,9.2-29.6,16.4-7.48,7.2-11.2,15.88-11.2,26,0,9.07,3.6,15.88,10.8,20.4,7.2,4.54,18.8,6.8,34.8,6.8h100c46.93,0,81.33,8.68,103.2,26,21.86,17.34,32.8,43.08,32.8,77.2Zm-97.6,20.8c0-12.28-4.28-21.88-12.8-28.8-8.54-6.94-24.28-10.4-47.2-10.4h-139.2c-10.67,6.4-18.27,14.12-22.8,23.2-4.54,9.06-6.8,18.12-6.8,27.2,0,13.86,5.6,25.2,16.8,34,11.2,8.8,30.92,13.2,59.2,13.2h48c38.4,0,65.46-5.6,81.2-16.8,15.72-11.2,23.6-25.08,23.6-41.6Zm-78.4-256c24,0,42.66-5.56,56-16.7,13.33-11.14,22.12-26.53,26.4-46.15,2.12-10.6,3.33-18.02,3.6-22.27,.26-4.25,.4-7.7,.4-10.35,0-32.88-21.08-49.32-63.2-49.32-24,0-42.67,5.57-56,16.71-13.34,11.14-22.14,26.51-26.4,46.14-2.14,10.61-3.34,18.04-3.6,22.29-.27,4.25-.4,7.69-.4,10.34,0,32.89,21.06,49.32,63.2,49.32Z"/>
  <path class="cls-1" d="M619.6,242.4c8-40.52,30.12-60.8,66.4-60.8h61.6l-15.2,77.6h-81.6l-31.2-16.8Z"/>
</svg>